HIERARCHY
ROOT Hips
{
  OFFSET 48.0453 85.5577 20.7888
  CHANNELS 6 Xposition Yposition Zposition Zrotation Xrotation Yrotation
  JOINT spine
  {
    OFFSET 0 6.3926 0.367606
    CHANNELS 3 Zrotation Xrotation Yrotation
    JOINT spine1
    {
      OFFSET 0 9.17611 0
      CHANNELS 3 Zrotation Xrotation Yrotation
      JOINT spine2
      {
        OFFSET 0 8.79238 0
        CHANNELS 3 Zrotation Xrotation Yrotation
        JOINT Neck
        {
          OFFSET 0 22.5737 1.07624
          CHANNELS 3 Zrotation Xrotation Yrotation
          JOINT Head
          {
            OFFSET 0 6.82011 0
            CHANNELS 3 Zrotation Xrotation Yrotation
            End Site
            {
              OFFSET 0 16.5085 -5.44427
            }
          }
        }
        JOINT RightShoulder
        {
          OFFSET -3.70221 9.49509 -0.515508
          CHANNELS 3 Zrotation Xrotation Yrotation
          JOINT RightArm
          {
            OFFSET 0 12.4537 0
            CHANNELS 3 Zrotation Xrotation Yrotation
            JOINT RightArmRoll
            {
              OFFSET 0 6.28685 0
              CHANNELS 3 Zrotation Xrotation Yrotation
              JOINT RightForeArm
              {
                OFFSET 0 18.3114 0
                CHANNELS 3 Zrotation Xrotation Yrotation
                JOINT RightForeArmRoll
                {
                  OFFSET 0 7.05482 0
                  CHANNELS 3 Zrotation Xrotation Yrotation
                  JOINT RightHand
                  {
                    OFFSET 0 14.1575 0
                    CHANNELS 3 Zrotation Xrotation Yrotation
                    End Site
                    {
                      OFFSET 0 0 0
                    }
                  }
                }
              }
            }
          }
        }
        JOINT LeftShoulder
        {
          OFFSET 3.70221 9.49509 -0.515508
          CHANNELS 3 Zrotation Xrotation Yrotation
          JOINT LeftArm
          {
            OFFSET 0 12.4537 0
            CHANNELS 3 Zrotation Xrotation Yrotation
            JOINT LeftArmRoll
            {
              OFFSET 0 6.28685 0
              CHANNELS 3 Zrotation Xrotation Yrotation
              JOINT LeftForeArm
              {
                OFFSET 0 18.3114 0
                CHANNELS 3 Zrotation Xrotation Yrotation
                JOINT LeftForeArmRoll
                {
                  OFFSET 0 7.05482 0
                  CHANNELS 3 Zrotation Xrotation Yrotation
                  JOINT LeftHand
                  {
                    OFFSET 0 14.1575 0
                    CHANNELS 3 Zrotation Xrotation Yrotation
                    End Site
                    {
                      OFFSET 0 0 0
                    }
                  }
                }
              }
            }
          }
        }
      }
    }
  }
  JOINT RightUpLeg
  {
    OFFSET -5.66616 -1.03903 -0.87161
    CHANNELS 3 Zrotation Xrotation Yrotation
    JOINT RightUpLegRoll
    {
      OFFSET 0 16.6005 0
      CHANNELS 3 Zrotation Xrotation Yrotation
      JOINT RightLeg
      {
        OFFSET 0 -20.5572 0
        CHANNELS 3 Zrotation Xrotation Yrotation
        JOINT RightLegRoll
        {
          OFFSET 0 20.6244 0
          CHANNELS 3 Zrotation Xrotation Yrotation
          JOINT RightFoot
          {
            OFFSET 0 17.1664 0
            CHANNELS 3 Zrotation Xrotation Yrotation
            JOINT RightToeBase
            {
              OFFSET 0 14.3502 0
              CHANNELS 3 Zrotation Xrotation Yrotation
              End Site
              {
                OFFSET 0.00608252 6.94971 -0.80106
              }
            }
          }
        }
      }
    }
  }
  JOINT LeftUpLeg
  {
    OFFSET 5.66616 -1.03903 -0.87161
    CHANNELS 3 Zrotation Xrotation Yrotation
    JOINT LeftUpLegRoll
    {
      OFFSET 0 16.6006 0
      CHANNELS 3 Zrotation Xrotation Yrotation
      JOINT LeftLeg
      {
        OFFSET 0 20.5571 0
        CHANNELS 3 Zrotation Xrotation Yrotation
        JOINT LeftLegRoll
        {
          OFFSET 0 20.8151 0
          CHANNELS 3 Zrotation Xrotation Yrotation
          JOINT LeftFoot
          {
            OFFSET 0 16.9757 0
            CHANNELS 3 Zrotation Xrotation Yrotation
            JOINT LeftToeBase
            {
              OFFSET 0 14.3502 0
              CHANNELS 3 Zrotation Xrotation Yrotation
              End Site
              {
                OFFSET -0.0272592 6.94971 -0.801061
              }
            }
          }
        }
      }
    }
  }
}
MOTION
Frames: 9
Frame Time: 0.00208333
53.56 85.6604 14.7594 -0.464486 -2.11324 -2.70655 -0.412383 -1.30996 -0.271844 -0.829904 1.38462 -0.510231 -0.824401 3.02956 -0.496611 5.57072 9.77936 -0.932867 -3.78555 6.02809 0.575304 66.2215 -0.86033 -1.32466 107.019 19.2653 -2.45164 -1.70243e-005 -3.41999e-006 -3.48151e-006 17.405 9.83142 -1.5943 1.73308e-006 3.06841e-006 -3.01058 8.0291 -4.95139 0.697704 -56.3351 -0.604666 0.0528499 -111.794 16.5108 4.4746 2.21235e-005 -1.18673e-006 3.48613e-006 -13.2521 10.5496 1.77031 -3.73895e-007 3.19245e-006 3.00372 -8.02887 -4.9514 -0.697675 175.38 -0.0873609 1.09157 180 7.01546e-015 178.92 176.602 6.00082 179.76 2.7829e-006 3.15208e-006 0.0570325 -18.0627 67.3013 18.9494 8.13647 25.2327 -3.48773 -176.123 -1.1737 1.18532 4.54188e-006 -4.6773e-006 -1.10583 -0.863872 -7.35865 0.427144 -2.31271e-006 7.68175e-007 -0.151316 20.0293 69.6253 -20.9851 -8.12666 25.2799 3.41955 
53.571 85.6585 14.7616 -0.459621 -2.10509 -2.70771 -0.412647 -1.31038 -0.271765 -0.831017 1.38379 -0.509248 -0.825526 3.02873 -0.495609 5.57665 9.78516 -0.935611 -3.79345 6.01276 0.573741 66.2133 -0.85936 -1.32327 107.029 19.2613 -2.51017 -1.70243e-005 -3.41999e-006 -3.48151e-006 17.4283 9.90498 -1.60536 1.73308e-006 3.06841e-006 -3.01058 8.0291 -4.95139 0.697704 -56.3231 -0.593407 0.0440574 -111.807 16.5024 4.5103 2.21235e-005 -1.18673e-006 3.48613e-006 -13.2711 10.6131 1.7803 -3.73895e-007 3.19245e-006 3.00372 -8.02887 -4.9514 -0.697675 175.371 -0.0758821 1.09872 180 7.01546e-015 178.92 176.595 6.00321 179.761 2.7829e-006 3.15208e-006 0.0570325 -18.0617 67.3 18.9483 8.13647 25.2327 -3.48773 -176.131 -1.16233 1.1922 4.54188e-006 -4.6773e-006 -1.10583 -0.861027 -7.36369 0.427564 -2.31271e-006 7.68175e-007 -0.151253 20.0309 69.6279 -20.9873 -8.1267 25.2804 3.41885 
53.5693 85.6586 14.767 -0.454555 -2.09709 -2.70888 -0.412905 -1.31083 -0.271676 -0.832173 1.38288 -0.508214 -0.826696 3.02782 -0.494555 5.58296 9.79136 -0.938477 -3.80202 5.99717 0.572155 66.2049 -0.85857 -1.32197 107.04 19.257 -2.56919 -1.70243e-005 -3.41999e-006 -3.48151e-006 17.452 9.97915 -1.6165 1.73308e-006 3.06841e-006 -3.01058 8.0291 -4.95139 0.697704 -56.3113 -0.581512 0.0348919 -111.82 16.4937 4.54542 2.21235e-005 -1.18673e-006 3.48613e-006 -13.29 10.6763 1.79025 -3.73895e-007 3.19245e-006 3.00372 -8.02887 -4.9514 -0.697675 175.362 -0.0645953 1.10621 180 7.01546e-015 178.92 176.589 6.00555 179.762 2.7829e-006 3.15208e-006 0.0570325 -18.0608 67.2988 18.9473 8.13647 25.2327 -3.48773 -176.139 -1.15153 1.19927 4.54188e-006 -4.6773e-006 -1.10583 -0.858171 -7.36789 0.42798 -2.31271e-006 7.68175e-007 -0.151159 20.0322 69.6302 -20.9892 -8.12674 25.281 3.41808 
53.5612 85.6616 14.7636 -0.449349 -2.08919 -2.71004 -0.41316 -1.31131 -0.271579 -0.833361 1.38191 -0.507144 -0.827897 3.02686 -0.493465 5.58955 9.79786 -0.941428 -3.81106 5.9814 0.570553 66.1964 -0.857905 -1.32072 107.051 19.2525 -2.62854 -1.70243e-005 -3.41999e-006 -3.48151e-006 17.4759 10.0538 -1.62771 1.73308e-006 3.06841e-006 -3.01058 8.0291 -4.95139 0.697704 -56.2998 -0.569171 0.0254653 -111.832 16.4848 4.58016 2.21235e-005 -1.18673e-006 3.48613e-006 -13.3088 10.7394 1.80016 -3.73895e-007 3.19245e-006 3.00372 -8.02887 -4.9514 -0.697675 175.352 -0.0534428 1.11394 180 7.01546e-015 178.92 176.582 6.00781 179.763 2.7829e-006 3.15208e-006 0.0570325 -18.0598 67.2976 18.9463 8.13647 25.2327 -3.48773 -176.146 -1.14112 1.20646 4.54188e-006 -4.6773e-006 -1.10583 -0.855306 -7.37151 0.428394 -2.31271e-006 7.68175e-007 -0.151044 20.0332 69.6321 -20.9907 -8.12678 25.2816 3.41726 
53.5697 85.6583 14.7586 -0.444062 -2.08135 -2.71121 -0.413413 -1.31181 -0.271478 -0.834566 1.38092 -0.506054 -0.829116 3.02586 -0.492354 5.59629 9.80453 -0.944429 -3.82038 5.96553 0.568942 66.1879 -0.857314 -1.31951 107.062 19.2478 -2.68809 -1.70243e-005 -3.41999e-006 -3.48151e-006 17.5 10.1286 -1.63896 1.73308e-006 3.06841e-006 -3.01058 8.0291 -4.95139 0.697704 -56.2884 -0.556577 0.0158895 -111.844 16.4757 4.61466 2.21235e-005 -1.18673e-006 3.48613e-006 -13.3275 10.8024 1.81006 -3.73895e-007 3.19245e-006 3.00372 -8.02887 -4.9514 -0.697675 175.342 -0.0423671 1.1218 180 7.01546e-015 178.92 176.575 6.01005 179.763 2.7829e-006 3.15208e-006 0.0570325 -18.0589 67.2965 18.9453 8.13647 25.2327 -3.48773 -176.155 -1.13095 1.21373 4.54188e-006 -4.6773e-006 -1.10583 -0.852438 -7.3748 0.428805 -2.31271e-006 7.68175e-007 -0.150916 20.034 69.6339 -20.9921 -8.12682 25.2822 3.41641 
53.5674 85.6556 14.7587 -0.438754 -2.07352 -2.71238 -0.413665 -1.31231 -0.271376 -0.835776 1.37991 -0.504959 -0.83034 3.02486 -0.491238 5.60307 9.81123 -0.947442 -3.82976 5.94964 0.56733 66.1793 -0.85674 -1.3183 107.072 19.2432 -2.74768 -1.70243e-005 -3.41999e-006 -3.48151e-006 17.5241 10.2035 -1.65022 1.73308e-006 3.06841e-006 -3.01058 8.0291 -4.95139 0.697704 -56.277 -0.543919 0.00627645 -111.856 16.4667 4.64911 2.21235e-005 -1.18673e-006 3.48613e-006 -13.3463 10.8654 1.81997 -3.73895e-007 3.19245e-006 3.00372 -8.02887 -4.9514 -0.697675 175.333 -0.0313107 1.12969 180 7.01546e-015 178.92 176.568 6.01226 179.764 2.7829e-006 3.15208e-006 0.0570325 -18.0581 67.2954 18.9443 8.13647 25.2327 -3.48773 -176.163 -1.12084 1.22102 4.54188e-006 -4.6773e-006 -1.10584 -0.849568 -7.37801 0.429217 -2.31271e-006 7.68175e-007 -0.150786 20.0348 69.6356 -20.9934 -8.12687 25.2829 3.41555 
53.577 85.6557 14.7688 -0.433487 -2.06567 -2.71355 -0.413918 -1.3128 -0.271276 -0.836977 1.37893 -0.503874 -0.831554 3.02387 -0.490132 5.60978 9.81785 -0.95043 -3.83901 5.93379 0.565721 66.1708 -0.85613 -1.31708 107.083 19.2385 -2.80717 -1.70243e-005 -3.41999e-006 -3.48151e-006 17.5482 10.2783 -1.66148 1.73308e-006 3.06841e-006 -3.01058 8.0291 -4.95139 0.697704 -56.2655 -0.531388 -0.00326195 -111.869 16.4576 4.68366 2.21235e-005 -1.18673e-006 3.48613e-006 -13.3651 10.9284 1.82988 -3.73895e-007 3.19245e-006 3.00372 -8.02887 -4.9514 -0.697675 175.323 -0.020216 1.13752 180 7.01546e-015 178.92 176.562 6.01451 179.765 2.7829e-006 3.15208e-006 0.0570325 -18.0572 67.2942 18.9433 8.13647 25.2327 -3.48773 -176.171 -1.11061 1.22827 4.54188e-006 -4.6773e-006 -1.10584 -0.8467 -7.38138 0.429629 -2.31271e-006 7.68175e-007 -0.150661 20.0357 69.6374 -20.9948 -8.12691 25.2835 3.41471 
53.5674 85.6642 14.7639 -0.428319 -2.05774 -2.71472 -0.414173 -1.31328 -0.271181 -0.838155 1.37798 -0.502814 -0.832746 3.02292 -0.489052 5.61629 9.82427 -0.953358 -3.84793 5.91808 0.564125 66.1623 -0.85543 -1.31581 107.094 19.234 -2.86642 -1.70243e-005 -3.41999e-006 -3.48151e-006 17.5721 10.3528 -1.67271 1.73308e-006 3.06841e-006 -3.01058 8.0291 -4.95139 0.697704 -56.2539 -0.519175 -0.0126138 -111.881 16.4487 4.71849 2.21235e-005 -1.18673e-006 3.48613e-006 -13.384 10.9916 1.83983 -3.73895e-007 3.19245e-006 3.00372 -8.02887 -4.9514 -0.697675 175.313 -0.00902534 1.14517 180 7.01546e-015 178.92 176.555 6.01681 179.766 2.7829e-006 3.15208e-006 0.0570325 -18.0562 67.293 18.9423 8.13647 25.2327 -3.48773 -176.179 -1.10009 1.23543 4.54188e-006 -4.6773e-006 -1.10584 -0.843838 -7.38517 0.430043 -2.31271e-006 7.68175e-007 -0.150552 20.0368 69.6395 -20.9964 -8.12695 25.2841 3.4139 
53.5629 85.6607 14.7648 -0.423312 -2.04969 -2.71588 -0.414434 -1.31372 -0.271095 -0.839298 1.37709 -0.501795 -0.833902 3.02204 -0.488013 5.62249 9.83035 -0.956188 -3.8563 5.90256 0.562546 66.154 -0.854585 -1.31448 107.105 19.2296 -2.92527 -1.70243e-005 -3.41999e-006 -3.48151e-006 17.5959 10.4268 -1.68387 1.73308e-006 3.06841e-006 -3.01058 8.0291 -4.95139 0.697704 -56.242 -0.507471 -0.0216672 -111.894 16.4401 4.75377 2.21235e-005 -1.18673e-006 3.48613e-006 -13.4031 11.0549 1.84983 -3.73895e-007 3.19245e-006 3.00372 -8.02887 -4.9514 -0.697675 175.304 0.00231873 1.15256 180 7.01546e-015 178.92 176.549 6.01915 179.766 2.7829e-006 3.15208e-006 0.0570325 -18.0553 67.2918 18.9413 8.13647 25.2327 -3.48773 -176.186 -1.08911 1.24244 4.54188e-006 -4.6773e-006 -1.10584 -0.840985 -7.38963 0.43046 -2.31271e-006 7.68175e-007 -0.150467 20.0382 69.6418 -20.9984 -8.12699 25.2847 3.41315 
